<?xml version="1.0" encoding="utf-8" ?>
<svg xmlns="http://www.w3.org/2000/svg" xmlns:xlink="http://www.w3.org/1999/xlink" width="1024" height="1024">
	<clipPath id="cl_3">
		<rect width="1024" height="1024" rx="512" ry="512"/>
	</clipPath>
	<g clip-path="url(#cl_3)">
		<path fill="#FDC901" transform="scale(2 2)" d="M272.253 203.008C271.684 158.173 304.564 120.942 350.493 122.156C367.909 122.616 388.626 130.468 400.74 143.241C403.299 145.765 405.702 148.065 407.437 151.249C419.118 162.806 424.634 183.506 424.735 199.644C424.927 230.569 404.415 260.192 375.456 270.896C371.826 272.238 368.085 273.234 364.42 274.467C364.428 285.763 364.589 297.083 364.42 308.375L364.42 330.079C361.48 329.653 357.951 330.059 354.937 330.064L333.328 330.079L333.328 325.611C333.757 320.348 333.321 314.813 333.318 309.513L333.328 274.467C303.188 265.943 281.323 247.806 273.884 215.887C273.421 211.583 272.748 207.307 272.253 203.008Z"/>
		<path fill="#E33913" transform="scale(2 2)" d="M333.328 274.467C343.198 276.108 354.609 276.778 364.42 274.467L364.403 297.369C364.4 300.953 364.106 304.817 364.42 308.375L364.42 330.079C361.48 329.653 357.951 330.059 354.937 330.064L333.328 330.079L333.328 325.611C333.757 320.348 333.321 314.813 333.318 309.513L333.328 274.467Z"/>
		<path fill="#E33913" transform="scale(2 2)" d="M344.788 136.696Q346.312 136.612 347.838 136.603Q349.364 136.593 350.889 136.659Q352.414 136.725 353.933 136.866Q355.453 137.006 356.964 137.221Q358.475 137.436 359.974 137.725Q361.472 138.014 362.955 138.377Q364.437 138.739 365.9 139.174Q367.363 139.609 368.803 140.115Q370.243 140.621 371.656 141.197Q373.069 141.773 374.453 142.418Q375.836 143.063 377.186 143.775Q378.535 144.487 379.849 145.265Q381.162 146.042 382.435 146.883Q383.709 147.725 384.94 148.627Q386.17 149.53 387.355 150.492Q388.54 151.454 389.676 152.473Q390.812 153.492 391.897 154.566Q392.981 155.639 394.012 156.765Q395.042 157.891 396.017 159.066Q396.991 160.241 397.906 161.462Q398.821 162.683 399.675 163.948Q400.529 165.213 401.32 166.518Q402.111 167.824 402.837 169.166Q403.562 170.509 404.221 171.885Q404.88 173.262 405.471 174.669Q406.061 176.076 406.582 177.511Q407.103 178.946 407.553 180.404Q408.002 181.863 408.38 183.341Q408.757 184.82 409.061 186.316Q409.366 187.811 409.596 189.32Q409.827 190.829 409.983 192.347Q410.139 193.865 410.22 195.389Q410.301 196.913 410.308 198.439Q410.314 199.965 410.245 201.49Q410.177 203.015 410.033 204.534Q409.89 206.053 409.672 207.564Q409.454 209.075 409.162 210.573Q408.87 212.071 408.505 213.552Q408.14 215.034 407.702 216.496Q407.265 217.959 406.756 219.397Q406.247 220.836 405.668 222.248Q405.09 223.661 404.442 225.043Q403.795 226.425 403.08 227.773Q402.365 229.122 401.585 230.433Q400.805 231.745 399.962 233.017Q399.118 234.289 398.213 235.518Q397.308 236.747 396.344 237.93Q395.38 239.113 394.358 240.247Q393.337 241.381 392.261 242.464Q391.186 243.546 390.058 244.575Q388.931 245.603 387.754 246.575Q386.577 247.547 385.354 248.46Q384.131 249.373 382.864 250.224Q381.598 251.076 380.291 251.864Q378.984 252.653 377.641 253.376Q376.297 254.099 374.919 254.756Q373.541 255.412 372.133 256Q370.724 256.588 369.289 257.106Q367.853 257.624 366.394 258.071Q364.935 258.518 363.455 258.892Q361.976 259.267 360.479 259.568Q358.983 259.87 357.474 260.097Q355.965 260.325 354.447 260.478Q352.928 260.632 351.404 260.71Q349.883 260.788 348.361 260.792Q346.838 260.796 345.318 260.725Q343.797 260.654 342.281 260.508Q340.766 260.363 339.259 260.143Q337.752 259.924 336.258 259.631Q334.764 259.337 333.286 258.971Q331.808 258.606 330.35 258.168Q328.892 257.73 327.457 257.221Q326.022 256.712 324.614 256.133Q323.206 255.555 321.827 254.908Q320.449 254.261 319.104 253.547Q317.759 252.833 316.451 252.055Q315.143 251.276 313.874 250.434Q312.606 249.592 311.38 248.689Q310.154 247.786 308.974 246.824Q307.794 245.861 306.662 244.843Q305.531 243.824 304.451 242.751Q303.371 241.678 302.344 240.553Q301.318 239.429 300.348 238.255Q299.378 237.081 298.467 235.862Q297.556 234.642 296.705 233.379Q295.855 232.116 295.067 230.813Q294.28 229.51 293.557 228.17Q292.835 226.83 292.178 225.456Q291.522 224.082 290.934 222.678Q290.346 221.273 289.828 219.842Q289.309 218.41 288.862 216.955Q288.414 215.5 288.038 214.024Q287.662 212.549 287.359 211.057Q287.056 209.565 286.827 208.06Q286.597 206.555 286.442 205.04Q286.286 203.525 286.205 202.005Q286.124 200.485 286.117 198.962Q286.111 197.44 286.179 195.919Q286.247 194.398 286.39 192.882Q286.532 191.366 286.749 189.859Q286.966 188.352 287.256 186.857Q287.546 185.363 287.91 183.884Q288.273 182.405 288.708 180.946Q289.143 179.487 289.649 178.051Q290.156 176.616 290.732 175.206Q291.308 173.797 291.952 172.417Q292.596 171.038 293.307 169.692Q294.019 168.345 294.795 167.036Q295.571 165.726 296.411 164.456Q297.25 163.186 298.151 161.958Q299.052 160.731 300.012 159.549Q300.972 158.367 301.988 157.234Q303.005 156.1 304.076 155.018Q305.147 153.936 306.27 152.907Q307.393 151.879 308.564 150.907Q309.736 149.935 310.954 149.021Q312.172 148.108 313.433 147.255Q314.695 146.402 315.996 145.612Q317.298 144.822 318.637 144.097Q319.975 143.372 321.348 142.713Q322.721 142.055 324.124 141.464Q325.527 140.873 326.958 140.352Q328.389 139.831 329.843 139.381Q331.297 138.93 332.772 138.552Q334.247 138.173 335.738 137.867Q337.23 137.561 338.735 137.329Q340.239 137.097 341.754 136.938Q343.268 136.78 344.788 136.696Z"/>
		<path fill="#FDC901" transform="scale(2 2)" d="M333.777 155.48C336.586 155.191 339.183 155.128 341.988 155.48C342.102 159.243 342.012 163.023 341.988 166.789L348.767 166.789C348.783 163.019 348.808 159.249 348.767 155.48C351.738 155.137 354.545 155.202 357.52 155.48C357.983 159.34 357.937 162.932 357.52 166.789C374.301 167.861 380.769 186.051 368.833 198.794C381.549 210.681 374.303 228.099 357.52 231.048C357.565 235.406 357.525 239.769 357.52 244.128C356.199 244.227 354.845 244.147 353.52 244.128C345.997 243.87 348.726 238.41 348.767 231.048C346.509 231.115 344.247 231.069 341.988 231.048L341.988 244.128C329.407 243.868 331.936 243.362 331.954 231.048C320.626 230.794 319.372 233.594 320.115 221.003C324.166 221.414 327.9 221.517 331.954 221.003L331.954 176.217C328.008 176.216 324.06 176.297 320.115 176.217C318.705 163.361 322.467 166.862 333.328 166.789C333.068 164.232 331.987 157.42 333.777 155.48Z"/>
		<path fill="#E33913" transform="scale(2 2)" d="M341.988 176.217C349.47 176.335 364.733 173.453 365.683 184.526C365.911 187.19 364.65 189.457 363.029 191.462C356.906 195.826 349.081 194.263 341.988 194.229C342.011 188.244 341.708 182.191 341.988 176.217Z"/>
		<path fill="#E33913" transform="scale(2 2)" d="M341.988 203.977C344.312 203.738 355.976 203.614 358.073 203.978C365.774 205.315 367.579 212.522 363.029 218.127C357.601 222.871 348.63 221.033 341.988 221.003L341.988 203.977Z"/>
		<path fill="#FDC901" transform="scale(2 2)" d="M254.498 215.887C256.733 242.642 236.789 262.898 209.444 258.014C190.056 254.552 176.84 234.268 180.524 215.126C187.032 181.315 230.122 173.092 250.009 203.008C251.722 207.227 253.281 211.496 254.498 215.887Z"/>
		<path fill="#FDC901" transform="scale(2 2)" d="M80.1329 347.096Q81.0409 347.035 81.9508 347.018Q82.8607 347.001 83.7704 347.029Q84.68 347.057 85.5872 347.129Q86.4944 347.202 87.3969 347.319Q88.2994 347.436 89.1951 347.597Q90.0908 347.758 90.9775 347.963Q91.8642 348.168 92.7398 348.416Q93.6154 348.664 94.4777 348.955Q95.3401 349.246 96.1871 349.578Q97.0342 349.911 97.8639 350.285Q98.6935 350.659 99.5039 351.073Q100.314 351.488 101.103 351.941Q101.892 352.395 102.658 352.886Q103.424 353.378 104.165 353.907Q104.905 354.435 105.619 355Q106.333 355.564 107.019 356.163Q107.704 356.762 108.359 357.393Q109.014 358.025 109.638 358.688Q110.261 359.351 110.851 360.044Q111.441 360.737 111.997 361.458Q112.552 362.178 113.071 362.926Q113.591 363.673 114.073 364.445Q114.555 365.217 114.998 366.012Q115.442 366.806 115.846 367.622Q116.25 368.437 116.613 369.272Q116.977 370.106 117.299 370.957Q117.621 371.808 117.901 372.674Q118.181 373.54 118.418 374.419Q118.655 375.297 118.849 376.187Q119.043 377.076 119.193 377.973Q119.343 378.871 119.448 379.775Q119.554 380.679 119.615 381.587Q119.676 382.495 119.693 383.405Q119.709 384.315 119.681 385.224Q119.653 386.134 119.58 387.041Q119.507 387.948 119.39 388.851Q119.273 389.753 119.111 390.649Q118.95 391.545 118.745 392.431Q118.54 393.318 118.291 394.193Q118.043 395.069 117.752 395.931Q117.461 396.793 117.128 397.64Q116.795 398.487 116.421 399.317Q116.047 400.146 115.632 400.957Q115.218 401.767 114.764 402.556Q114.31 403.345 113.818 404.11Q113.326 404.876 112.798 405.617Q112.269 406.357 111.704 407.071Q111.14 407.785 110.541 408.47Q109.942 409.155 109.31 409.81Q108.678 410.465 108.015 411.088Q107.352 411.711 106.659 412.301Q105.966 412.891 105.245 413.446Q104.524 414.002 103.776 414.521Q103.029 415.04 102.257 415.522Q101.485 416.003 100.69 416.447Q99.895 416.89 99.0794 417.294Q98.2638 417.698 97.4294 418.061Q96.595 418.424 95.7438 418.746Q94.8926 419.068 94.0266 419.348Q93.1606 419.627 92.2819 419.864Q91.4032 420.101 90.514 420.295Q89.6247 420.488 88.7271 420.638Q87.8294 420.787 86.9254 420.893Q86.0215 420.998 85.1135 421.059Q84.2058 421.12 83.2962 421.136Q82.3866 421.152 81.4773 421.124Q80.568 421.096 79.6612 421.023Q78.7544 420.95 77.8522 420.832Q76.9501 420.715 76.0548 420.554Q75.1595 420.392 74.2732 420.187Q73.3869 419.982 72.5117 419.733Q71.6365 419.485 70.7746 419.194Q69.9127 418.903 69.0661 418.57Q68.2195 418.237 67.3902 417.863Q66.561 417.489 65.7511 417.074Q64.9412 416.66 64.1526 416.206Q63.364 415.753 62.5986 415.261Q61.8332 414.769 61.0928 414.24Q60.3525 413.712 59.639 413.147Q58.9254 412.583 58.2405 411.984Q57.5555 411.385 56.9007 410.754Q56.246 410.122 55.623 409.459Q55 408.796 54.4102 408.104Q53.8205 407.411 53.2655 406.69Q52.7104 405.969 52.1914 405.222Q51.6724 404.475 51.1907 403.703Q50.709 402.932 50.2657 402.137Q49.8224 401.343 49.4187 400.527Q49.0149 399.712 48.6516 398.878Q48.2883 398.044 47.9664 397.193Q47.6445 396.342 47.3647 395.477Q47.0849 394.611 46.8479 393.733Q46.6109 392.854 46.4173 391.965Q46.2236 391.077 46.0739 390.179Q45.9241 389.282 45.8185 388.378Q45.7129 387.475 45.6518 386.567Q45.5907 385.659 45.5742 384.75Q45.5576 383.84 45.5858 382.931Q45.6139 382.021 45.6866 381.115Q45.7593 380.208 45.8764 379.306Q45.9935 378.403 46.1547 377.508Q46.316 376.613 46.5209 375.726Q46.7259 374.84 46.9741 373.965Q47.2222 373.09 47.5131 372.228Q47.8039 371.366 48.1367 370.519Q48.4694 369.672 48.8433 368.843Q49.2173 368.014 49.6314 367.204Q50.0455 366.394 50.4989 365.605Q50.9523 364.816 51.4438 364.051Q51.9354 363.285 52.4639 362.545Q52.9923 361.804 53.5565 361.09Q54.1207 360.377 54.7192 359.692Q55.3178 359.007 55.9492 358.352Q56.5806 357.697 57.2433 357.073Q57.9061 356.45 58.5987 355.86Q59.2912 355.27 60.0119 354.715Q60.7326 354.16 61.4796 353.641Q62.2266 353.122 62.9982 352.64Q63.7698 352.158 64.5641 351.714Q65.3585 351.271 66.1736 350.867Q66.9887 350.463 67.8227 350.099Q68.6566 349.736 69.5074 349.414Q70.3582 349.091 71.2238 348.811Q72.0893 348.531 72.9676 348.294Q73.8458 348.057 74.7347 347.863Q75.6235 347.669 76.5208 347.519Q77.4181 347.369 78.3217 347.263Q79.2252 347.157 80.1329 347.096Z"/>
		<path fill="#FDC901" transform="scale(2 2)" d="M278.788 346.645Q279.691 346.543 280.598 346.486Q281.505 346.429 282.414 346.416Q283.323 346.403 284.232 346.435Q285.14 346.467 286.046 346.543Q286.952 346.619 287.852 346.74Q288.753 346.861 289.647 347.026Q290.541 347.19 291.426 347.399Q292.311 347.607 293.184 347.859Q294.057 348.11 294.918 348.404Q295.778 348.699 296.622 349.034Q297.467 349.37 298.294 349.747Q299.121 350.124 299.929 350.542Q300.736 350.959 301.522 351.415Q302.308 351.871 303.071 352.365Q303.834 352.86 304.572 353.391Q305.309 353.922 306.02 354.488Q306.731 355.055 307.413 355.656Q308.095 356.257 308.747 356.89Q309.399 357.524 310.018 358.189Q310.638 358.853 311.225 359.548Q311.811 360.242 312.363 360.964Q312.915 361.687 313.431 362.435Q313.946 363.184 314.425 363.957Q314.903 364.73 315.343 365.525Q315.783 366.321 316.183 367.137Q316.583 367.953 316.943 368.787Q317.303 369.622 317.621 370.474Q317.939 371.325 318.216 372.191Q318.492 373.057 318.725 373.935Q318.959 374.814 319.149 375.703Q319.339 376.592 319.485 377.489Q319.631 378.386 319.733 379.289Q319.835 380.192 319.893 381.099Q319.95 382.007 319.963 382.915Q319.976 383.824 319.944 384.733Q319.913 385.641 319.837 386.547Q319.761 387.453 319.64 388.354Q319.52 389.255 319.355 390.148Q319.19 391.042 318.982 391.927Q318.774 392.812 318.523 393.686Q318.271 394.559 317.977 395.419Q317.684 396.279 317.348 397.124Q317.012 397.969 316.635 398.796Q316.258 399.623 315.841 400.431Q315.424 401.238 314.968 402.025Q314.512 402.811 314.018 403.574Q313.524 404.337 312.993 405.075Q312.462 405.813 311.896 406.523Q311.329 407.234 310.729 407.917Q310.128 408.599 309.495 409.251Q308.861 409.903 308.197 410.523Q307.532 411.143 306.838 411.729Q306.143 412.316 305.421 412.868Q304.699 413.42 303.951 413.936Q303.202 414.452 302.429 414.93Q301.657 415.409 300.861 415.849Q300.066 416.289 299.25 416.689Q298.434 417.09 297.599 417.45Q296.764 417.81 295.913 418.128Q295.062 418.447 294.196 418.723Q293.33 418.999 292.452 419.233Q291.573 419.467 290.684 419.657Q289.795 419.847 288.898 419.993Q288.001 420.14 287.098 420.242Q286.195 420.344 285.287 420.402Q284.38 420.46 283.471 420.473Q282.562 420.486 281.653 420.454Q280.744 420.423 279.838 420.347Q278.932 420.271 278.031 420.15Q277.13 420.03 276.235 419.866Q275.341 419.701 274.456 419.493Q273.571 419.285 272.697 419.033Q271.824 418.782 270.963 418.488Q270.103 418.194 269.258 417.858Q268.413 417.522 267.586 417.146Q266.758 416.769 265.95 416.352Q265.142 415.935 264.356 415.478Q263.569 415.022 262.806 414.528Q262.043 414.034 261.305 413.503Q260.567 412.972 259.856 412.405Q259.145 411.838 258.462 411.238Q257.78 410.637 257.128 410.003Q256.476 409.369 255.856 408.705Q255.236 408.04 254.649 407.345Q254.062 406.651 253.51 405.928Q252.958 405.206 252.442 404.457Q251.926 403.708 251.448 402.935Q250.969 402.162 250.529 401.367Q250.089 400.571 249.688 399.755Q249.288 398.938 248.928 398.103Q248.568 397.269 248.25 396.417Q247.931 395.565 247.655 394.699Q247.379 393.833 247.145 392.954Q246.912 392.075 246.721 391.186Q246.531 390.297 246.385 389.4Q246.239 388.502 246.137 387.599Q246.035 386.696 245.977 385.788Q245.92 384.881 245.907 383.972Q245.894 383.063 245.926 382.154Q245.957 381.245 246.034 380.339Q246.11 379.433 246.23 378.532Q246.351 377.631 246.516 376.737Q246.68 375.843 246.889 374.958Q247.097 374.073 247.349 373.199Q247.6 372.325 247.894 371.465Q248.188 370.604 248.524 369.76Q248.86 368.915 249.237 368.087Q249.614 367.26 250.032 366.452Q250.449 365.644 250.905 364.858Q251.361 364.072 251.856 363.308Q252.35 362.545 252.881 361.808Q253.413 361.07 253.979 360.359Q254.546 359.648 255.147 358.966Q255.748 358.283 256.382 357.631Q257.016 356.98 257.681 356.359Q258.346 355.739 259.04 355.153Q259.735 354.566 260.457 354.014Q261.18 353.462 261.929 352.947Q262.678 352.431 263.451 351.952Q264.224 351.474 265.02 351.034Q265.815 350.594 266.632 350.194Q267.448 349.794 268.283 349.434Q269.118 349.074 269.97 348.756Q270.821 348.438 271.688 348.161Q272.554 347.885 273.433 347.652Q274.311 347.419 275.201 347.229Q276.09 347.039 276.987 346.893Q277.885 346.747 278.788 346.645Z"/>
		<path fill="#E33913" transform="scale(2 2)" d="M382.37 330.45Q382.457 329.593 382.585 328.741Q382.712 327.89 382.879 327.045Q383.047 326.2 383.253 325.363Q383.459 324.527 383.704 323.702Q383.95 322.876 384.233 322.063Q384.517 321.249 384.838 320.45Q385.159 319.651 385.517 318.868Q385.875 318.084 386.27 317.319Q386.664 316.553 387.094 315.806Q387.523 315.06 387.987 314.334Q388.451 313.609 388.949 312.906Q389.446 312.203 389.976 311.524Q390.506 310.844 391.067 310.191Q391.628 309.537 392.219 308.911Q392.809 308.284 393.429 307.685Q394.048 307.087 394.695 306.518Q395.342 305.949 396.014 305.411Q396.687 304.873 397.384 304.367Q398.081 303.861 398.801 303.388Q399.521 302.915 400.262 302.477Q401.003 302.038 401.764 301.634Q402.525 301.231 403.303 300.863Q404.082 300.495 404.877 300.164Q405.673 299.833 406.482 299.54Q407.292 299.247 408.115 298.991Q408.937 298.736 409.771 298.52Q410.605 298.303 411.447 298.126Q412.29 297.948 413.141 297.81Q413.991 297.672 414.846 297.575Q415.702 297.477 416.561 297.419Q417.421 297.361 418.282 297.343Q419.143 297.325 420.004 297.348Q420.865 297.371 421.724 297.433Q422.583 297.496 423.438 297.599Q424.293 297.702 425.143 297.844Q425.992 297.987 426.834 298.169Q427.676 298.351 428.508 298.573Q429.341 298.794 430.162 299.054Q430.983 299.314 431.791 299.612Q432.599 299.91 433.392 300.245Q434.186 300.58 434.963 300.953Q435.739 301.325 436.498 301.733Q437.256 302.141 437.995 302.584Q438.734 303.027 439.451 303.504Q440.168 303.98 440.862 304.49Q441.556 305 442.226 305.542Q442.895 306.084 443.539 306.657Q444.182 307.229 444.798 307.831Q445.414 308.433 446.002 309.063Q446.589 309.693 447.146 310.35Q447.703 311.007 448.229 311.689Q448.755 312.371 449.249 313.077Q449.742 313.783 450.202 314.511Q450.662 315.239 451.087 315.988Q451.513 316.737 451.903 317.505Q452.293 318.273 452.647 319.058Q453 319.844 453.317 320.645Q453.634 321.446 453.912 322.26Q454.191 323.075 454.432 323.902Q454.672 324.729 454.874 325.567Q455.076 326.404 455.238 327.25Q455.4 328.096 455.523 328.949Q455.645 329.801 455.728 330.658Q455.81 331.516 455.853 332.376Q455.895 333.236 455.898 334.098Q455.9 334.959 455.862 335.819Q455.824 336.68 455.746 337.538Q455.668 338.395 455.55 339.248Q455.432 340.102 455.274 340.948Q455.116 341.795 454.919 342.633Q454.722 343.472 454.486 344.3Q454.25 345.128 453.975 345.945Q453.7 346.761 453.388 347.564Q453.076 348.367 452.726 349.154Q452.377 349.941 451.991 350.711Q451.605 351.481 451.183 352.232Q450.762 352.983 450.306 353.714Q449.85 354.444 449.36 355.153Q448.87 355.861 448.348 356.546Q447.826 357.231 447.272 357.891Q446.718 358.551 446.134 359.184Q445.55 359.817 444.938 360.422Q444.325 361.027 443.684 361.603Q443.044 362.179 442.377 362.724Q441.71 363.27 441.019 363.783Q440.328 364.297 439.613 364.778Q438.898 365.258 438.162 365.705Q437.426 366.152 436.669 366.564Q435.913 366.976 435.138 367.352Q434.363 367.729 433.572 368.068Q432.78 368.408 431.974 368.71Q431.167 369.012 430.348 369.277Q429.528 369.541 428.697 369.766Q427.866 369.992 427.025 370.179Q426.184 370.365 425.335 370.513Q424.487 370.66 423.632 370.767Q422.777 370.874 421.919 370.942Q421.06 371.009 420.199 371.036Q419.338 371.063 418.477 371.05Q417.616 371.037 416.756 370.984Q415.897 370.93 415.04 370.837Q414.184 370.743 413.333 370.61Q412.482 370.477 411.638 370.304Q410.795 370.131 409.96 369.919Q409.125 369.706 408.301 369.455Q407.477 369.205 406.666 368.915Q405.855 368.626 405.058 368.3Q404.261 367.973 403.48 367.609Q402.699 367.246 401.936 366.846Q401.173 366.446 400.43 366.012Q399.686 365.577 398.964 365.108Q398.241 364.638 397.542 364.136Q396.842 363.634 396.167 363.099Q395.491 362.565 394.842 361.999Q394.192 361.434 393.569 360.839Q392.947 360.244 392.353 359.62Q391.758 358.996 391.194 358.346Q390.63 357.695 390.096 357.019Q389.563 356.342 389.062 355.642Q388.561 354.941 388.093 354.218Q387.625 353.495 387.191 352.751Q386.758 352.007 386.359 351.243Q385.961 350.479 385.599 349.698Q385.236 348.917 384.911 348.119Q384.586 347.322 384.298 346.51Q384.01 345.698 383.761 344.874Q383.511 344.049 383.3 343.214Q383.09 342.379 382.918 341.535Q382.362 338.8 382.224 336.013Q382.087 333.226 382.37 330.45Z"/>
		<path fill="#F77507" transform="scale(2 2)" d="M135.121 244.128C145.236 244.121 155.359 244.021 165.473 244.128L165.473 330.079C162.208 329.88 158.826 330.064 155.547 330.066L135.121 330.079L135.121 325.611L135.121 244.128Z"/>
		<path fill="#E33913" transform="scale(2 2)" d="M201.596 261.252C211.475 265.808 220.772 265.444 230.977 262.248L230.98 307.312C230.981 314.591 230.625 321.997 230.977 329.256C229.566 330.976 220.534 330.086 218.317 330.085L201.596 330.079L201.596 261.252Z"/>
		<path fill="#DEDEDE" transform="scale(2 2)" d="M266.452 330.079C266.495 326.464 265.808 320.519 266.452 317.194L266.452 341.494C261.376 341.73 256.236 341.509 251.152 341.5L131.437 341.489C126.754 341.49 100.478 341.083 98.2304 341.874L97.9831 342.291C98.0662 338.225 97.9917 334.146 97.9831 330.079C108.806 330.779 124.218 330.417 135.121 330.079C135.047 328.952 134.596 326.561 135.121 325.611L135.121 330.079L155.547 330.066C158.826 330.064 162.208 329.88 165.473 330.079L201.596 330.079L218.317 330.085C220.534 330.086 229.566 330.976 230.977 329.256L231.265 329.748C233.862 330.578 261.414 330.082 266.452 330.079Z"/>
		<path fill="#DEDEDE" transform="scale(2 2)" d="M446.677 96.772L433.259 96.8002C430.389 96.8046 425.114 97.6412 422.804 95.4604C418.85 91.7274 421.522 85.8211 426.51 85.2581C435.009 84.2986 454.148 84.932 462.923 85.2527C468.523 88.9402 466.273 99.4822 466.274 105.873C466.276 111.823 466.764 120.314 466.048 126.028C465.22 132.628 455.025 132.52 454.268 125.765C453.575 119.571 454.424 113.022 454.131 106.786C449.562 110.294 445.666 114.658 441.598 118.724L420.759 139.621C416.763 143.583 412.412 148.583 407.437 151.249C405.702 148.065 403.299 145.765 400.74 143.241C404.291 138.969 408.433 135.236 412.338 131.294L436.676 106.943C439.981 103.599 443.94 100.613 446.677 96.772Z"/>
		<path fill="#E33913" transform="scale(2 2)" d="M68.7815 283.608L97.9831 283.608L97.9831 330.079C97.9917 334.146 98.0662 338.225 97.9831 342.291C97.2546 343.14 95.8761 342.397 94.9438 342.112C85.8833 339.336 77.8219 340.012 68.7815 342.291L68.7815 283.608Z"/>
		<path fill="#F77507" transform="scale(2 2)" d="M135.121 148.925L165.473 148.925L165.473 198.794C155.369 198.956 145.228 198.796 135.121 198.794L135.121 148.925Z"/>
		<path fill="#F77507" transform="scale(2 2)" d="M266.452 297.247L297.733 297.247L297.733 330.079C297.725 332.838 297.188 339.233 297.733 341.494C297.528 343.346 296.88 342.673 295.396 342.205C285.344 339.035 276.673 339.736 266.711 343.494C266.313 342.877 266.455 342.217 266.452 341.494L266.452 317.194C266.46 310.569 266.216 303.862 266.452 297.247Z"/>
		<path fill="#B3ADAC" transform="scale(2 2)" d="M250.009 203.008L272.253 203.008C272.748 207.307 273.421 211.583 273.884 215.887C267.461 215.91 260.899 215.564 254.498 215.887C253.281 211.496 251.722 207.227 250.009 203.008Z"/>
	</g>
</svg>
